<svg xmlns="http://www.w3.org/2000/svg" width="14.887" height="21.534" viewBox="0 0 14.887 21.534">
  <g id="Group_126184" data-name="Group 126184" transform="translate(-13191.893 -12960)">
    <path id="Path_129614" data-name="Path 129614" d="M196.76,225.673l-7.421-.885-7.4,1.047.067,10.767,7.421.967,7.4-1.126Z" transform="translate(13009.953 12743.965)" fill="#cc885d"/>
    <path id="Path_129615" data-name="Path 129615" d="M228.981,54.091a11.3,11.3,0,0,1,.456-3.7,3.1,3.1,0,0,1,2.609-1.515h.114a3.081,3.081,0,0,1,2.634,1.488,10.386,10.386,0,0,1,.474,3.671l2.3.275c.015-1.208.027-2.552.01-2.833a5.351,5.351,0,0,0-4.9-4.824c-.161-.012-.325-.02-.481-.022a5.481,5.481,0,0,0-3.7,1.31,5.189,5.189,0,0,0-1.821,3.455c-.022.265-.022,1.756-.02,3.019Z" transform="translate(12967.209 12913.365)" fill="#cc885d"/>
  </g>
</svg>
