<svg xmlns="http://www.w3.org/2000/svg" width="38.505" height="21.051" viewBox="0 0 38.505 21.051">
  <g id="map-gps" transform="translate(-1600.213 -209.624)">
    <g id="Group_336">
      <path id="Path_307" d="M1638.718,219.379l-12.6-8.294v16.59Z" fill="#d3925f"/>
    </g>
    <g id="Group_5934">
      <g id="Group_338">
        <g id="Group_337">
          <path id="Path_308" d="M1600.513,230.675h3.008a.285.285,0,0,0,.3-.269.164.164,0,0,0,0-.031V216.33l9.65,14.135a.462.462,0,0,0,.36.21h2.466a.284.284,0,0,0,.3-.267.186.186,0,0,0,0-.033v-20.45a.282.282,0,0,0-.264-.3.215.215,0,0,0-.036,0h-3.062a.283.283,0,0,0-.3.265v.035l.06,14.013-9.654-14.1a.459.459,0,0,0-.362-.21h-2.466a.285.285,0,0,0-.3.267v20.479a.286.286,0,0,0,.27.3h.03" fill="#d3925f"/>
        </g>
      </g>
    </g>
  </g>
</svg>
